<svg width="42" height="42" viewBox="0 0 42 42" fill="none" xmlns="http://www.w3.org/2000/svg">
<rect x="42" y="42" width="42" height="42" rx="21" transform="rotate(-180 42 42)" fill="white" fill-opacity="0.12"/>
<rect x="41.75" y="41.75" width="41.5" height="41.5" rx="20.75" transform="rotate(-180 41.75 41.75)" stroke="white" stroke-opacity="0.15" stroke-width="0.5"/>
<path d="M31.3536 22.3536C31.5488 22.1583 31.5488 21.8417 31.3536 21.6464L28.1716 18.4645C27.9763 18.2692 27.6597 18.2692 27.4645 18.4645C27.2692 18.6597 27.2692 18.9763 27.4645 19.1716L30.2929 22L27.4645 24.8284C27.2692 25.0237 27.2692 25.3403 27.4645 25.5355C27.6597 25.7308 27.9763 25.7308 28.1716 25.5355L31.3536 22.3536ZM31 22L31 21.5L12 21.5L12 22L12 22.5L31 22.5L31 22Z" fill="#C5C5C5"/>
</svg>
