<svg width="146" height="51" viewBox="0 0 146 51" fill="none" xmlns="http://www.w3.org/2000/svg">
<path d="M22 0C9.84974 1.67507e-06 0 9.84974 0 22C0 31.2898 5.75866 39.233 13.9004 42.459L15.751 49.3701C16.1495 50.8573 18.009 51.3553 19.0977 50.2666L25.2207 44.1426C25.2669 44.0964 25.3101 44.0488 25.3506 44H124C136.15 44 146 34.1503 146 22C146 9.84974 136.15 4.993e-07 124 0H22Z" fill="white"/>
<path d="M34.989 20.376V22.0361H32.0008V23.9287C33.2376 23.8623 34.491 23.7461 35.6697 23.5801L35.8357 25.1074C32.4822 25.7715 28.8963 25.7715 26.2566 25.8047L26.0076 24.0781C27.1448 24.0781 28.4812 24.0698 29.8924 24.0283V22.0361H27.0701V14.6484H34.9392V16.3418H29.2117V17.5371H34.6404V19.1475H29.2117V20.376H34.989ZM38.6414 13.4199V28.5605H36.533V13.4199H38.6414ZM45.7871 16.8398C45.7705 19.5459 46.9326 22.2852 49.3564 23.4473L48.0781 25.1406C46.4595 24.3438 45.3721 22.8496 44.7412 21.0234C44.0854 22.9824 42.915 24.5845 41.2051 25.4229L39.8935 23.7129C42.4502 22.5342 43.6621 19.6455 43.6621 16.8398V14.582H45.7871V16.8398ZM52.1455 13.4199V19.2471H54.3701V21.04H52.1455V28.5273H50.0205V13.4199H52.1455ZM66.4299 13.4199V19.3301H68.6545V21.0732H66.4299V28.5273H64.3381V13.4199H66.4299ZM63.3088 15.6777V17.3711H54.4269V15.6777H57.8469V13.6523H59.9719V15.6777H63.3088ZM58.9094 18.2178C61.1174 18.2178 62.7609 19.7119 62.7609 21.8203C62.7609 23.9287 61.1174 25.4229 58.9094 25.4229C56.6848 25.4229 55.0412 23.9287 55.0412 21.8203C55.0412 19.7119 56.6848 18.2178 58.9094 18.2178ZM58.9094 19.9277C57.8469 19.9443 57.0666 20.6582 57.0666 21.8203C57.0666 22.999 57.8469 23.6963 58.9094 23.6797C59.9719 23.6963 60.7355 22.999 60.7355 21.8203C60.7355 20.6582 59.9719 19.9443 58.9094 19.9277ZM81.2455 14.7314V16.1592C81.2455 18.0518 81.2455 20.1768 80.6312 23.3809L78.5062 23.165C79.079 20.3096 79.1039 18.1846 79.1205 16.4082H70.2221V14.7314H81.2455ZM82.5736 24.958V26.6846H68.7943V24.958H73.725V19.7617H75.8334V24.958H82.5736ZM99.2391 13.4365V21.8037H97.1141V13.4365H99.2391ZM92.3826 15.4121C92.366 17.2051 93.4617 18.9814 95.9354 19.6621L94.9227 21.3389C93.1795 20.8242 91.9759 19.7783 91.2869 18.4336C90.598 19.8945 89.3611 21.0483 87.5516 21.5879L86.5389 19.9277C89.0623 19.1641 90.1746 17.2881 90.1746 15.4121V13.9512H92.3826V15.4121ZM99.3221 22.4844V24.1611H97.5125V26.668H99.4549V28.3613H88.8133V26.668H90.7723V24.1611H88.9461V22.4844H99.3221ZM92.8641 26.668H95.4207V24.1611H92.8641V26.668ZM112.793 13.4199V19.0312H115.018V20.7578H112.793V28.5605H110.668V13.4199H112.793ZM108.56 14.8145V16.5244H103.579V23.1484C105.771 23.1235 107.58 23.0239 109.589 22.667L109.821 24.4434C107.48 24.8418 105.422 24.9082 102.749 24.8916H101.471V14.8145H108.56ZM117.116 27.1494C116.336 27.1494 115.705 26.5186 115.722 25.7549C115.705 24.9912 116.336 24.377 117.116 24.377C117.847 24.377 118.494 24.9912 118.494 25.7549C118.494 26.5186 117.847 27.1494 117.116 27.1494Z" fill="#FF4646"/>
</svg>
