<svg width="348" height="571" viewBox="0 0 348 571" fill="none" xmlns="http://www.w3.org/2000/svg">
<circle cx="173" cy="492" r="68" fill="#BEECFF"/>
<rect x="105" y="533" width="58" height="38" rx="19" fill="#BEECFF"/>
<rect x="191" y="533" width="58" height="38" rx="19" fill="#FF5D5D"/>
<rect x="191" y="533" width="58" height="38" rx="19" fill="#BEECFF"/>
<circle cx="172" cy="340" r="124" fill="url(#paint0_linear_2217_476)"/>
<path d="M128.5 298.499L129.631 298.176C132.323 297.408 135.177 297.408 137.869 298.176L139 298.499" stroke="black" stroke-width="6" stroke-linecap="round"/>
<path d="M195 298.499L196.131 298.176C198.823 297.408 201.677 297.408 204.369 298.176L205.5 298.499" stroke="black" stroke-width="6" stroke-linecap="round"/>
<circle cx="133" cy="358" r="28" fill="black"/>
<circle cx="202" cy="358" r="28" fill="black"/>
<circle cx="133" cy="358" r="14" fill="white"/>
<circle cx="202" cy="358" r="14" fill="white"/>
<defs>
<linearGradient id="paint0_linear_2217_476" x1="62.1028" y1="580.5" x2="261" y2="236" gradientUnits="userSpaceOnUse">
<stop stop-color="#8DDFFF"/>
<stop offset="1" stop-color="white"/>
</linearGradient>
</defs>
</svg>
