<svg width="348" height="571" viewBox="0 0 348 571" fill="none" xmlns="http://www.w3.org/2000/svg">
<circle cx="173" cy="492" r="68" fill="#FFB4D3"/>
<rect x="105" y="533" width="58" height="38" rx="19" fill="#FFB4D3"/>
<rect x="191" y="533" width="58" height="38" rx="19" fill="#FFB4D3"/>
<circle cx="172" cy="340" r="124" fill="url(#paint0_linear_2217_505)"/>
<circle cx="145" cy="362" r="23" fill="black"/>
<circle cx="140" cy="354" r="10" fill="white"/>
<ellipse cx="153.5" cy="370" rx="7.5" ry="7" fill="white"/>
<circle cx="208" cy="362" r="23" fill="black"/>
<path d="M145 325L142.713 327.287C135.04 334.96 125.482 340.479 115 343.287V343.287" stroke="black" stroke-width="6" stroke-linecap="round"/>
<path d="M208 325L210.287 327.287C217.96 334.96 227.518 340.479 238 343.287V343.287" stroke="black" stroke-width="6" stroke-linecap="round"/>
<circle cx="202" cy="354" r="10" fill="white"/>
<circle cx="216" cy="370" r="7" fill="white"/>
<ellipse cx="129" cy="384" rx="12" ry="8" fill="#BEECFF"/>
<ellipse cx="226" cy="384" rx="12" ry="8" fill="#BEECFF"/>
<path d="M120.5 384.5C121.167 383.167 123.4 380.4 127 380" stroke="white" stroke-opacity="0.56" stroke-width="2" stroke-linecap="round"/>
<path d="M216 384.5C216.667 383.167 218.9 380.4 222.5 380" stroke="white" stroke-opacity="0.56" stroke-width="2" stroke-linecap="round"/>
<defs>
<linearGradient id="paint0_linear_2217_505" x1="123.013" y1="475" x2="261" y2="236" gradientUnits="userSpaceOnUse">
<stop stop-color="#FFA7CC"/>
<stop offset="1" stop-color="white"/>
</linearGradient>
</defs>
</svg>
