<svg width="352" height="651" viewBox="0 0 352 651" fill="none" xmlns="http://www.w3.org/2000/svg">
<path d="M73.7159 650.909V614.545H82.125V617.33H76.8977V648.125H82.125V650.909H73.7159ZM110.252 611.92H113.572V635.96H110.252V611.92ZM112.652 621.8H118.892V624.56H112.652V621.8ZM100.972 634.24H103.852V635.32C103.852 637 103.479 638.547 102.732 639.96C102.012 641.347 101.012 642.587 99.7322 643.68C98.4789 644.747 97.0389 645.64 95.4122 646.36C93.7855 647.08 92.0655 647.613 90.2522 647.96L88.9322 645.32C90.5322 645.053 92.0522 644.627 93.4922 644.04C94.9589 643.427 96.2522 642.693 97.3722 641.84C98.4922 640.96 99.3722 639.973 100.012 638.88C100.652 637.76 100.972 636.573 100.972 635.32V634.24ZM101.452 634.24H104.252V635.32C104.252 636.573 104.572 637.76 105.212 638.88C105.879 639.973 106.772 640.96 107.892 641.84C109.012 642.693 110.292 643.427 111.732 644.04C113.199 644.627 114.732 645.053 116.332 645.32L115.012 647.96C113.199 647.613 111.479 647.08 109.852 646.36C108.226 645.64 106.772 644.747 105.492 643.68C104.239 642.587 103.252 641.347 102.532 639.96C101.812 638.547 101.452 637 101.452 635.32V634.24ZM95.5722 614.44C97.4122 614.44 99.0389 614.8 100.452 615.52C101.866 616.24 102.972 617.253 103.772 618.56C104.599 619.84 105.012 621.333 105.012 623.04C105.012 624.72 104.599 626.213 103.772 627.52C102.972 628.8 101.866 629.813 100.452 630.56C99.0389 631.28 97.4122 631.64 95.5722 631.64C93.7855 631.64 92.1722 631.28 90.7322 630.56C89.3189 629.813 88.1989 628.8 87.3722 627.52C86.5455 626.213 86.1322 624.72 86.1322 623.04C86.1322 621.333 86.5455 619.84 87.3722 618.56C88.1989 617.253 89.3189 616.24 90.7322 615.52C92.1722 614.8 93.7855 614.44 95.5722 614.44ZM95.5722 617.24C94.3989 617.24 93.3455 617.493 92.4122 618C91.4789 618.48 90.7322 619.16 90.1722 620.04C89.6389 620.893 89.3722 621.893 89.3722 623.04C89.3722 624.16 89.6389 625.16 90.1722 626.04C90.7322 626.893 91.4789 627.573 92.4122 628.08C93.3455 628.56 94.3989 628.8 95.5722 628.8C96.7722 628.8 97.8389 628.56 98.7722 628.08C99.7055 627.573 100.439 626.893 100.972 626.04C101.532 625.16 101.812 624.16 101.812 623.04C101.812 621.893 101.532 620.893 100.972 620.04C100.439 619.16 99.7055 618.48 98.7722 618C97.8389 617.493 96.7722 617.24 95.5722 617.24ZM124.009 615.8H127.329V637H124.009V615.8ZM124.009 636.08H126.329C128.436 636.08 130.502 636.013 132.529 635.88C134.582 635.72 136.742 635.4 139.009 634.92L139.489 637.76C137.116 638.267 134.876 638.6 132.769 638.76C130.689 638.893 128.542 638.96 126.329 638.96H124.009V636.08ZM149.849 611.92H153.049V648.12H149.849V611.92ZM134.089 624.08H143.089V626.8H134.089V624.08ZM142.169 612.8H145.329V646.28H142.169V612.8ZM166.859 614.545V650.909H158.45V648.125H163.677V617.33H158.45V614.545H166.859Z" fill="white"/>
<circle cx="173" cy="492" r="68" fill="#FF5D5D"/>
<circle cx="172" cy="340" r="124" fill="url(#paint0_linear_2217_849)"/>
<rect x="127" y="340" width="17" height="36" rx="8.5" fill="black"/>
<rect x="191" y="340" width="17" height="36" rx="8.5" fill="black"/>
<path d="M117 321L149.5 338" stroke="black" stroke-width="6" stroke-linecap="round"/>
<path d="M216.5 321L184 338" stroke="black" stroke-width="6" stroke-linecap="round"/>
<rect x="105" y="533" width="58" height="38" rx="19" fill="#FF5D5D"/>
<rect x="191" y="533" width="58" height="38" rx="19" fill="#FF5D5D"/>
<rect x="191" y="533" width="58" height="38" rx="19" fill="#FF5D5D"/>
<path d="M122.999 237.002L137.964 231L132.5 244.502L140.5 271.085L125.5 260.752L105 271.085L109.038 256.002L97 237.002L109.038 231L122.999 237.002Z" fill="white"/>
<path d="M159.706 253.344L163 261.601L155.59 258.586L141 263L146.671 254.724L141 243.414L149.278 245.642L159.706 239L163 245.642L159.706 253.344Z" fill="white"/>
<path d="M255.701 53.275C258.731 49.1272 264.284 47.7229 268.921 49.9318L345.286 86.3066C349.725 88.4212 352.148 93.293 351.154 98.1088L313.237 281.936C311.837 288.726 304.44 292.404 298.181 289.423L150.33 218.997C144.287 216.119 142.35 208.456 146.297 203.052L255.701 53.275Z" fill="#838383"/>
<mask id="mask0_2217_849" style="mask-type:alpha" maskUnits="userSpaceOnUse" x="144" y="48" width="208" height="243">
<path d="M255.701 53.276C258.731 49.1282 264.284 47.7239 268.921 49.9328L345.286 86.3076C349.725 88.4222 352.148 93.294 351.154 98.1097L313.237 281.937C311.836 288.727 304.44 292.405 298.181 289.424L150.33 218.998C144.287 216.12 142.349 208.457 146.297 203.053L255.701 53.276Z" fill="#D9D9D9"/>
</mask>
<g mask="url(#mask0_2217_849)">
<rect x="144.155" y="155.418" width="227" height="53.4118" rx="10.6824" transform="rotate(25.4698 144.155 155.418)" fill="#777777"/>
</g>
<rect x="134.969" y="174.703" width="227" height="53.4118" rx="10.6824" transform="rotate(25.4698 134.969 174.703)" fill="#838383"/>
<path d="M282.749 94.232L218.842 188.031" stroke="black" stroke-width="8.01176" stroke-linecap="round"/>
<path d="M306.858 105.716L274.295 214.444" stroke="black" stroke-width="8.01176" stroke-linecap="round"/>
<defs>
<linearGradient id="paint0_linear_2217_849" x1="123.013" y1="475" x2="261" y2="236" gradientUnits="userSpaceOnUse">
<stop stop-color="#FF4646"/>
<stop offset="1" stop-color="white"/>
</linearGradient>
</defs>
</svg>
