<svg width="352" height="571" viewBox="0 0 352 571" fill="none" xmlns="http://www.w3.org/2000/svg">
<circle cx="173" cy="492" r="68" fill="#FF5D5D"/>
<circle cx="172" cy="340" r="124" fill="url(#paint0_linear_2217_849)"/>
<rect x="127" y="340" width="17" height="36" rx="8.5" fill="black"/>
<rect x="191" y="340" width="17" height="36" rx="8.5" fill="black"/>
<path d="M117 321L149.5 338" stroke="black" stroke-width="6" stroke-linecap="round"/>
<path d="M216.5 321L184 338" stroke="black" stroke-width="6" stroke-linecap="round"/>
<rect x="105" y="533" width="58" height="38" rx="19" fill="#FF5D5D"/>
<rect x="191" y="533" width="58" height="38" rx="19" fill="#FF5D5D"/>
<rect x="191" y="533" width="58" height="38" rx="19" fill="#FF5D5D"/>
<path d="M122.999 237.002L137.964 231L132.5 244.502L140.5 271.085L125.5 260.752L105 271.085L109.038 256.002L97 237.002L109.038 231L122.999 237.002Z" fill="white"/>
<path d="M159.706 253.344L163 261.601L155.59 258.586L141 263L146.671 254.724L141 243.414L149.278 245.642L159.706 239L163 245.642L159.706 253.344Z" fill="white"/>
<path d="M255.701 53.275C258.731 49.1272 264.284 47.7229 268.921 49.9318L345.286 86.3066C349.725 88.4212 352.148 93.293 351.154 98.1088L313.237 281.936C311.837 288.726 304.44 292.404 298.181 289.423L150.33 218.997C144.287 216.119 142.35 208.456 146.297 203.052L255.701 53.275Z" fill="#838383"/>
<mask id="mask0_2217_849" style="mask-type:alpha" maskUnits="userSpaceOnUse" x="144" y="48" width="208" height="243">
<path d="M255.701 53.276C258.731 49.1282 264.284 47.7239 268.921 49.9328L345.286 86.3076C349.725 88.4222 352.148 93.294 351.154 98.1097L313.237 281.937C311.836 288.727 304.44 292.405 298.181 289.424L150.33 218.998C144.287 216.12 142.349 208.457 146.297 203.053L255.701 53.276Z" fill="#D9D9D9"/>
</mask>
<g mask="url(#mask0_2217_849)">
<rect x="144.155" y="155.418" width="227" height="53.4118" rx="10.6824" transform="rotate(25.4698 144.155 155.418)" fill="#777777"/>
</g>
<rect x="134.969" y="174.703" width="227" height="53.4118" rx="10.6824" transform="rotate(25.4698 134.969 174.703)" fill="#838383"/>
<path d="M282.749 94.232L218.842 188.031" stroke="black" stroke-width="8.01176" stroke-linecap="round"/>
<path d="M306.858 105.716L274.295 214.444" stroke="black" stroke-width="8.01176" stroke-linecap="round"/>
<defs>
<linearGradient id="paint0_linear_2217_849" x1="123.013" y1="475" x2="261" y2="236" gradientUnits="userSpaceOnUse">
<stop stop-color="#FF4646"/>
<stop offset="1" stop-color="white"/>
</linearGradient>
</defs>
</svg>
