<svg width="36" height="36" viewBox="0 0 36 36" fill="none" xmlns="http://www.w3.org/2000/svg">
<path d="M13.68 13.68V12.68C13.1277 12.68 12.68 13.1277 12.68 13.68H13.68ZM13.8234 13.68H14.8234C14.8234 13.1277 14.3757 12.68 13.8234 12.68V13.68ZM22.32 13.68V12.68C21.7677 12.68 21.32 13.1277 21.32 13.68H22.32ZM22.4475 13.68H23.4475C23.4475 13.1277 22.9998 12.68 22.4475 12.68V13.68ZM13.8234 13.7953V14.7953C14.3757 14.7953 14.8234 14.3476 14.8234 13.7953H13.8234ZM13.68 13.7953H12.68C12.68 14.3476 13.1277 14.7953 13.68 14.7953V13.7953ZM22.4475 13.7953V14.7953C22.9998 14.7953 23.4475 14.3476 23.4475 13.7953H22.4475ZM22.32 13.7953H21.32C21.32 14.3476 21.7677 14.7953 22.32 14.7953V13.7953ZM13.0079 21.3787C12.4556 21.3787 12.0079 21.8264 12.0079 22.3787C12.0079 22.931 12.4556 23.3787 13.0079 23.3787V21.3787ZM22.9921 23.3787C23.5444 23.3787 23.9921 22.931 23.9921 22.3787C23.9921 21.8264 23.5444 21.3787 22.9921 21.3787V23.3787ZM32.4 18H31.4C31.4 25.4006 25.4006 31.4 18 31.4V32.4V33.4C26.5052 33.4 33.4 26.5052 33.4 18H32.4ZM18 32.4V31.4C10.5994 31.4 4.60001 25.4006 4.60001 18H3.60001H2.60001C2.60001 26.5052 9.49482 33.4 18 33.4V32.4ZM3.60001 18H4.60001C4.60001 10.5994 10.5994 4.6 18 4.6V3.6V2.6C9.49482 2.6 2.60001 9.49481 2.60001 18H3.60001ZM18 3.6V4.6C25.4006 4.6 31.4 10.5994 31.4 18H32.4H33.4C33.4 9.49481 26.5052 2.6 18 2.6V3.6ZM13.68 13.68V14.68H13.8234V13.68V12.68H13.68V13.68ZM22.32 13.68V14.68H22.4475V13.68V12.68H22.32V13.68ZM13.8234 13.68H12.8234V13.7953H13.8234H14.8234V13.68H13.8234ZM13.8234 13.7953V12.7953H13.68V13.7953V14.7953H13.8234V13.7953ZM13.68 13.7953H14.68V13.68H13.68H12.68V13.7953H13.68ZM22.4475 13.68H21.4475V13.7953H22.4475H23.4475V13.68H22.4475ZM22.4475 13.7953V12.7953H22.32V13.7953V14.7953H22.4475V13.7953ZM22.32 13.7953H23.32V13.68H22.32H21.32V13.7953H22.32ZM22.9921 22.3787V21.3787H13.0079V22.3787V23.3787H22.9921V22.3787Z" fill="#484848"/>
</svg>
