<svg width="36" height="36" viewBox="0 0 36 36" fill="none" xmlns="http://www.w3.org/2000/svg">
<path d="M17.9996 21.5996L17.3434 22.3542C17.7197 22.6814 18.2795 22.6814 18.6558 22.3542L17.9996 21.5996ZM10.1728 22.4001C10.7041 22.2492 11.0124 21.6962 10.8616 21.1649C10.7107 20.6337 10.1577 20.3253 9.62643 20.4762L9.89961 21.4381L10.1728 22.4001ZM26.3728 20.4762C25.8415 20.3253 25.2885 20.6337 25.1376 21.1649C24.9868 21.6962 25.2952 22.2492 25.8264 22.4001L26.0996 21.4381L26.3728 20.4762ZM25.1996 10.6431H24.1996C24.1996 11.579 23.8343 12.6791 23.1951 13.8601C22.5632 15.0277 21.7081 16.1938 20.8325 17.2407C19.9597 18.2842 19.0841 19.1887 18.4253 19.8331C18.0965 20.1548 17.8233 20.4101 17.6335 20.5841C17.5386 20.671 17.4646 20.7375 17.4151 20.7816C17.3903 20.8037 17.3717 20.8202 17.3596 20.8308C17.3536 20.8361 17.3491 20.84 17.3464 20.8424C17.3451 20.8436 17.3441 20.8444 17.3436 20.8448C17.3434 20.845 17.3432 20.8452 17.3432 20.8452C17.3432 20.8452 17.3432 20.8452 17.3432 20.8452C17.3433 20.8451 17.3434 20.845 17.9996 21.5996C18.6558 22.3542 18.656 22.3541 18.6561 22.3539C18.6562 22.3538 18.6565 22.3536 18.6567 22.3535C18.6571 22.3531 18.6576 22.3527 18.6582 22.3521C18.6594 22.351 18.6611 22.3496 18.6632 22.3477C18.6674 22.344 18.6734 22.3389 18.6809 22.3322C18.6961 22.3189 18.7179 22.2996 18.7458 22.2747C18.8018 22.2248 18.8825 22.1522 18.9845 22.0588C19.1884 21.872 19.4777 21.6015 19.8239 21.2628C20.5151 20.5866 21.4395 19.6324 22.3667 18.5238C23.2911 17.4185 24.236 16.1389 24.9541 14.812C25.6649 13.4984 26.1996 12.055 26.1996 10.6431H25.1996ZM17.9996 21.5996C18.6558 20.845 18.6559 20.8451 18.656 20.8452C18.656 20.8452 18.656 20.8452 18.656 20.8452C18.656 20.8452 18.6558 20.845 18.6556 20.8448C18.6551 20.8444 18.6541 20.8436 18.6528 20.8424C18.6501 20.84 18.6457 20.8361 18.6396 20.8308C18.6275 20.8202 18.6089 20.8037 18.5841 20.7816C18.5346 20.7375 18.4606 20.671 18.3658 20.5841C18.1759 20.4101 17.9027 20.1548 17.5739 19.8331C16.9151 19.1887 16.0395 18.2842 15.1667 17.2407C14.2911 16.1938 13.436 15.0277 12.8041 13.8601C12.1649 12.6791 11.7996 11.579 11.7996 10.6431H10.7996H9.79961C9.79961 12.055 10.3343 13.4984 11.0451 14.812C11.7632 16.1389 12.7081 17.4185 13.6325 18.5238C14.5597 19.6324 15.4841 20.5866 16.1753 21.2628C16.5215 21.6015 16.8108 21.872 17.0147 22.0588C17.1167 22.1522 17.1974 22.2248 17.2534 22.2747C17.2814 22.2996 17.3031 22.3189 17.3183 22.3322C17.3259 22.3389 17.3318 22.344 17.336 22.3477C17.3381 22.3496 17.3398 22.351 17.341 22.3521C17.3416 22.3527 17.3422 22.3531 17.3426 22.3535C17.3428 22.3536 17.343 22.3538 17.3431 22.3539C17.3433 22.3541 17.3434 22.3542 17.9996 21.5996ZM10.7996 10.6431H11.7996C11.7996 7.32597 14.5546 4.59961 17.9996 4.59961V3.59961V2.59961C13.4917 2.59961 9.79961 6.18019 9.79961 10.6431H10.7996ZM17.9996 3.59961V4.59961C21.4446 4.59961 24.1996 7.32597 24.1996 10.6431H25.1996H26.1996C26.1996 6.18019 22.5075 2.59961 17.9996 2.59961V3.59961ZM32.3996 26.3996H31.3996C31.3996 26.8797 31.1703 27.4276 30.5662 28.0227C29.9585 28.6213 29.0279 29.2064 27.7973 29.7192C25.3405 30.7429 21.877 31.3996 17.9996 31.3996V32.3996V33.3996C22.0751 33.3996 25.8116 32.7132 28.5666 31.5653C29.9418 30.9923 31.1201 30.2845 31.9698 29.4475C32.823 28.607 33.3996 27.5764 33.3996 26.3996H32.3996ZM17.9996 32.3996V31.3996C14.1222 31.3996 10.6588 30.7429 8.20189 29.7192C6.97127 29.2064 6.04067 28.6213 5.43302 28.0227C4.82888 27.4276 4.59961 26.8797 4.59961 26.3996H3.59961H2.59961C2.59961 27.5764 3.17623 28.607 4.02945 29.4475C4.87915 30.2845 6.05739 30.9923 7.43266 31.5653C10.1876 32.7132 13.9241 33.3996 17.9996 33.3996V32.3996ZM3.59961 26.3996H4.59961C4.59961 25.8049 4.95873 25.0943 5.93398 24.3425C6.8992 23.5985 8.34438 22.9193 10.1728 22.4001L9.89961 21.4381L9.62643 20.4762C7.65185 21.0369 5.94703 21.8073 4.713 22.7585C3.48899 23.702 2.59961 24.932 2.59961 26.3996H3.59961ZM26.0996 21.4381L25.8264 22.4001C27.6548 22.9193 29.1 23.5985 30.0652 24.3425C31.0405 25.0943 31.3996 25.8049 31.3996 26.3996H32.3996H33.3996C33.3996 24.932 32.5102 23.702 31.2862 22.7585C30.0522 21.8073 28.3474 21.0369 26.3728 20.4762L26.0996 21.4381Z" fill="#FF4646"/>
</svg>
