<svg width="358" height="169" viewBox="0 0 358 169" fill="none" xmlns="http://www.w3.org/2000/svg">
<circle opacity="0.8" cx="166.491" cy="70.241" r="2.8555" fill="white" stroke="black" stroke-width="0.815859"/>
<circle opacity="0.8" cx="158.332" cy="59.6344" r="4.48722" fill="white" stroke="black" stroke-width="0.815859"/>
<circle cx="180.822" cy="149.165" r="16.8844" fill="#FF5D5D"/>
<circle cx="180.573" cy="111.422" r="30.7892" fill="url(#paint0_linear_2965_1753)"/>
<rect x="169.4" y="111.422" width="4.22111" height="8.93881" rx="2.11055" fill="black"/>
<rect x="185.291" y="111.422" width="4.22111" height="8.93881" rx="2.11055" fill="black"/>
<path d="M166.917 106.705L174.987 110.926" stroke="black" stroke-width="1.4898" stroke-linecap="round"/>
<path d="M191.623 106.705L183.553 110.926" stroke="black" stroke-width="1.4898" stroke-linecap="round"/>
<rect x="163.938" y="159.345" width="14.4014" height="9.43541" rx="4.71771" fill="#FF5D5D"/>
<rect x="185.291" y="159.345" width="14.4014" height="9.43541" rx="4.71771" fill="#FF5D5D"/>
<rect x="185.291" y="159.345" width="14.4014" height="9.43541" rx="4.71771" fill="#FF5D5D"/>
<path d="M168.407 85.8477L172.123 84.3574L170.766 87.71L172.752 94.3105L169.028 91.7449L163.938 94.3105L164.94 90.5654L161.951 85.8477L164.94 84.3574L168.407 85.8477Z" fill="white"/>
<path d="M177.52 89.9055L178.338 91.9555L176.498 91.207L172.875 92.303L174.283 90.2481L172.875 87.4397L174.931 87.9929L177.52 86.3437L178.338 87.9929L177.52 89.9055Z" fill="white"/>
<path d="M201.356 40.2295C202.109 39.1996 203.488 38.8509 204.639 39.3993L223.6 48.4312C224.703 48.9563 225.304 50.1659 225.058 51.3617L215.643 97.0061C215.295 98.692 213.458 99.6052 211.904 98.865L175.193 81.3782C173.692 80.6636 173.211 78.761 174.191 77.4191L201.356 40.2295Z" fill="#838383"/>
<mask id="mask0_2965_1753" style="mask-type:alpha" maskUnits="userSpaceOnUse" x="173" y="39" width="53" height="61">
<path d="M201.356 40.2295C202.109 39.1996 203.488 38.8509 204.639 39.3993L223.6 48.4312C224.703 48.9563 225.304 50.1659 225.058 51.3617L215.643 97.0061C215.295 98.692 213.458 99.6052 211.904 98.865L175.193 81.3782C173.692 80.6636 173.211 78.761 174.191 77.4191L201.356 40.2295Z" fill="#D9D9D9"/>
</mask>
<g mask="url(#mask0_2965_1753)">
<rect x="173.659" y="65.5918" width="56.3642" height="13.2622" rx="2.65243" transform="rotate(25.4698 173.659 65.5918)" fill="#777777"/>
</g>
<rect x="171.379" y="70.3799" width="56.3642" height="13.2622" rx="2.65243" transform="rotate(25.4698 171.379 70.3799)" fill="#838383"/>
<path d="M208.073 50.3985L192.205 73.6887" stroke="black" stroke-width="1.98932" stroke-linecap="round"/>
<path d="M214.059 53.25L205.974 80.2473" stroke="black" stroke-width="1.98932" stroke-linecap="round"/>
<g opacity="0.8">
<mask id="path-20-inside-1_2965_1753" fill="white">
<path d="M143.867 0C152.038 0 159.149 3.33581 162.825 8.25684C165.215 7.14995 167.923 6.52638 170.791 6.52637C180.479 6.52637 188.332 13.6492 188.332 22.4355C188.332 28.4702 184.627 33.7196 179.168 36.416C179.292 37.1788 179.357 37.959 179.357 38.7529C179.357 47.5393 171.504 54.6621 161.816 54.6621C157.644 54.6621 153.813 53.3401 150.802 51.1338C147.791 53.3398 143.96 54.6621 139.788 54.6621C132.147 54.6621 125.647 50.2302 123.242 44.0459C123.047 44.0517 122.852 44.0557 122.655 44.0557C112.968 44.0556 105.114 36.9329 105.114 28.1465C105.114 19.3602 112.968 12.2374 122.655 12.2373C122.712 12.2373 122.769 12.2388 122.826 12.2393C125.078 5.22228 133.643 4.6115e-05 143.867 0Z"/>
</mask>
<path d="M143.867 0C152.038 0 159.149 3.33581 162.825 8.25684C165.215 7.14995 167.923 6.52638 170.791 6.52637C180.479 6.52637 188.332 13.6492 188.332 22.4355C188.332 28.4702 184.627 33.7196 179.168 36.416C179.292 37.1788 179.357 37.959 179.357 38.7529C179.357 47.5393 171.504 54.6621 161.816 54.6621C157.644 54.6621 153.813 53.3401 150.802 51.1338C147.791 53.3398 143.96 54.6621 139.788 54.6621C132.147 54.6621 125.647 50.2302 123.242 44.0459C123.047 44.0517 122.852 44.0557 122.655 44.0557C112.968 44.0556 105.114 36.9329 105.114 28.1465C105.114 19.3602 112.968 12.2374 122.655 12.2373C122.712 12.2373 122.769 12.2388 122.826 12.2393C125.078 5.22228 133.643 4.6115e-05 143.867 0Z" fill="white"/>
<path d="M143.867 0V-0.815859H143.867L143.867 0ZM162.825 8.25684L162.172 8.74513L162.568 9.27521L163.168 8.99717L162.825 8.25684ZM170.791 6.52637V5.71051V5.71051V6.52637ZM188.332 22.4355H189.148V22.4355L188.332 22.4355ZM179.168 36.416L178.807 35.6845L178.266 35.9516L178.363 36.5467L179.168 36.416ZM179.357 38.7529H180.173V38.7529L179.357 38.7529ZM161.816 54.6621V55.478H161.816L161.816 54.6621ZM150.802 51.1338L151.284 50.4757L150.802 50.1224L150.32 50.4757L150.802 51.1338ZM139.788 54.6621V55.478H139.788L139.788 54.6621ZM123.242 44.0459L124.003 43.7502L123.794 43.2132L123.218 43.2304L123.242 44.0459ZM122.655 44.0557L122.655 44.8715H122.655V44.0557ZM105.114 28.1465L104.298 28.1465V28.1465H105.114ZM122.655 12.2373V11.4214H122.655L122.655 12.2373ZM122.826 12.2393L122.819 13.0551L123.42 13.0603L123.603 12.4886L122.826 12.2393ZM143.867 0V0.815859C151.839 0.815859 158.681 4.07316 162.172 8.74513L162.825 8.25684L163.479 7.76854C159.616 2.59846 152.236 -0.815859 143.867 -0.815859V0ZM162.825 8.25684L163.168 8.99717C165.451 7.93993 168.042 7.34224 170.791 7.34223V6.52637V5.71051C167.804 5.71052 164.98 6.35998 162.482 7.5165L162.825 8.25684ZM170.791 6.52637V7.34223C180.105 7.34223 187.516 14.1729 187.516 22.4356L188.332 22.4355L189.148 22.4355C189.148 13.1255 180.852 5.71051 170.791 5.71051V6.52637ZM188.332 22.4355H187.516C187.516 28.1177 184.027 33.1059 178.807 35.6845L179.168 36.416L179.529 37.1475C185.227 34.3332 189.148 28.8228 189.148 22.4355H188.332ZM179.168 36.416L178.363 36.5467C178.48 37.2676 178.542 38.004 178.542 38.7529L179.357 38.7529L180.173 38.7529C180.173 37.9139 180.104 37.09 179.973 36.2853L179.168 36.416ZM179.357 38.7529H178.542C178.542 47.0156 171.13 53.8462 161.816 53.8463L161.816 54.6621L161.816 55.478C171.878 55.4779 180.173 48.0631 180.173 38.7529H179.357ZM161.816 54.6621V53.8463C157.817 53.8463 154.155 52.5792 151.284 50.4757L150.802 51.1338L150.32 51.7919C153.471 54.1009 157.471 55.478 161.816 55.478V54.6621ZM150.802 51.1338L150.32 50.4757C147.449 52.579 143.787 53.8462 139.788 53.8463L139.788 54.6621L139.788 55.478C144.133 55.478 148.133 54.1006 151.284 51.7919L150.802 51.1338ZM139.788 54.6621V53.8463C132.454 53.8463 126.275 49.5949 124.003 43.7502L123.242 44.0459L122.482 44.3416C125.019 50.8654 131.839 55.478 139.788 55.478V54.6621ZM123.242 44.0459L123.218 43.2304C123.028 43.2361 122.841 43.2398 122.655 43.2398V44.0557V44.8715C122.862 44.8715 123.067 44.8674 123.266 44.8614L123.242 44.0459ZM122.655 44.0557L122.655 43.2398C113.342 43.2397 105.93 36.4091 105.93 28.1465H105.114H104.298C104.298 37.4566 112.594 44.8714 122.655 44.8715L122.655 44.0557ZM105.114 28.1465L105.93 28.1465C105.93 19.8839 113.342 13.0532 122.655 13.0532L122.655 12.2373L122.655 11.4214C112.594 11.4215 104.299 18.8365 104.298 28.1465L105.114 28.1465ZM122.655 12.2373V13.0532C122.713 13.0532 122.739 13.0544 122.819 13.0551L122.826 12.2393L122.833 11.4234C122.8 11.4231 122.712 11.4214 122.655 11.4214V12.2373ZM122.826 12.2393L123.603 12.4886C125.709 5.92534 133.858 0.815904 143.867 0.815859L143.867 0L143.867 -0.815859C133.428 -0.815812 124.447 4.51922 122.049 11.99L122.826 12.2393Z" fill="black" mask="url(#path-20-inside-1_2965_1753)"/>
</g>
<path d="M107.5 34C137.6 34 162 45.1929 162 59C162 66.938 153.934 74.0102 141.357 78.5898L146.943 89L133.08 81.0781C125.452 82.9415 116.745 84 107.5 84C77.4005 84 53 72.8071 53 59C53 45.1929 77.4005 34 107.5 34Z" fill="white"/>
<path d="M141.357 78.5898L141.186 78.12L140.644 78.3176L140.917 78.8263L141.357 78.5898ZM146.943 89L146.695 89.4341L148.207 90.2982L147.384 88.7636L146.943 89ZM133.08 81.0781L133.328 80.644L133.155 80.5451L132.961 80.5924L133.08 81.0781ZM107.5 34V34.5C122.495 34.5 136.045 37.289 145.829 41.7768C155.656 46.2846 161.5 52.4107 161.5 59H162H162.5C162.5 51.7822 156.144 45.4083 146.246 40.8679C136.304 36.3075 122.605 33.5 107.5 33.5V34ZM162 59H161.5C161.5 62.7868 159.578 66.4157 156.055 69.688C152.53 72.9612 147.435 75.8447 141.186 78.12L141.357 78.5898L141.529 79.0597C147.857 76.7554 153.083 73.813 156.735 70.4207C160.389 67.0274 162.5 63.1513 162.5 59H162ZM141.357 78.5898L140.917 78.8263L146.503 89.2364L146.943 89L147.384 88.7636L141.798 78.3534L141.357 78.5898ZM146.943 89L147.191 88.5659L133.328 80.644L133.08 81.0781L132.832 81.5122L146.695 89.4341L146.943 89ZM133.08 81.0781L132.961 80.5924C125.375 82.4456 116.708 83.5 107.5 83.5V84V84.5C116.782 84.5 125.529 83.4374 133.199 81.5638L133.08 81.0781ZM107.5 84V83.5C92.5054 83.5 78.9546 80.711 69.1712 76.2232C59.3442 71.7154 53.5 65.5893 53.5 59H53H52.5C52.5 66.2178 58.856 72.5917 68.7542 77.1321C78.6959 81.6925 92.3951 84.5 107.5 84.5V84ZM53 59H53.5C53.5 52.4107 59.3442 46.2846 69.1712 41.7768C78.9546 37.289 92.5054 34.5 107.5 34.5V34V33.5C92.3951 33.5 78.6959 36.3075 68.7542 40.8679C58.856 45.4083 52.5 51.7822 52.5 59H53Z" fill="black"/>
<path opacity="0.8" d="M133.77 32.0506C136.345 32.0506 137.798 32.6497 137.811 33.848C137.798 35.0463 136.345 35.6582 133.77 35.6582C131.169 35.6582 129.703 35.0463 129.703 33.848C129.703 32.6497 131.169 32.0506 133.77 32.0506ZM133.77 33.1979C132.126 33.1979 131.373 33.4146 131.373 33.848C131.373 34.2942 132.126 34.4854 133.77 34.4854C135.402 34.4854 136.154 34.2942 136.167 33.848C136.154 33.4146 135.402 33.1979 133.77 33.1979ZM138.525 24.8991V26.1101H129.002V24.8991H132.967V23.943H134.599V24.8991H138.525ZM133.783 26.4288C136.294 26.4161 137.684 27.0025 137.684 28.0988C137.684 29.1951 136.294 29.756 133.783 29.756C131.284 29.756 129.869 29.1951 129.882 28.0988C129.869 27.0025 131.284 26.4161 133.783 26.4288ZM133.783 27.4996C132.317 27.5124 131.616 27.6908 131.616 28.0988C131.616 28.4939 132.317 28.6469 133.783 28.6469C135.262 28.6469 135.937 28.4939 135.937 28.0988C135.937 27.6908 135.262 27.5124 133.783 27.4996ZM139.073 30.2659V31.5024H128.492V30.2659H139.073ZM145.982 24.8608C147.55 24.8608 148.717 26.1547 148.953 28.239H150.967V24.045H152.573V35.6709H150.967V29.5393H148.965C148.793 31.7701 147.601 33.1341 145.982 33.1341C144.223 33.1341 142.961 31.5407 142.974 28.9911C142.961 26.467 144.223 24.8608 145.982 24.8608ZM145.982 26.3268C145.116 26.3268 144.516 27.2702 144.529 28.9911C144.516 30.7248 145.116 31.6554 145.982 31.6554C146.862 31.6554 147.436 30.7248 147.436 28.9911C147.436 27.2702 146.862 26.3268 145.982 26.3268ZM164.046 30.4316V33.5293H157.519V34.2687H164.288V35.518H155.875V32.3565H162.427V31.6681H155.862V30.4316H164.046ZM164.046 24.045V29.9854H162.414V27.6653H161.114V26.3778H162.414V24.045H164.046ZM157.073 26.0591C157.073 26.7794 157.264 27.6653 157.863 28.341C158.431 27.6781 158.628 26.7985 158.641 26.0591V25.8297H158.055V24.5294H161.369V25.8297H160.183V26.0591C160.171 27.0789 160.655 28.2007 161.917 28.7744L161.14 29.9089C160.292 29.5456 159.75 28.9146 159.431 28.1625C159.164 28.9401 158.679 29.6285 157.851 30.0364C157.035 29.6285 156.55 28.9465 156.283 28.1752C155.951 28.921 155.409 29.552 154.587 29.9089L153.822 28.7744C155.059 28.2007 155.556 27.0662 155.556 26.0591V25.8297H154.281V24.5294H157.672V25.8297H157.073V26.0591Z" fill="black"/>
<path d="M100.275 53.6211V57.6113H102.438V59.4746H100.275V64.1855H98.0254V53.6211H100.275ZM96.25 63.834C96.25 65.6094 97.9375 67.3496 101.348 67.7891L100.469 69.5469C97.9639 69.1602 96.1357 68.0791 95.1602 66.5762C94.1846 68.0791 92.3564 69.1602 89.834 69.5469L88.9727 67.7891C92.3477 67.3496 94.0352 65.6094 94.0352 63.834V63.4297H96.25V63.834ZM92.084 54.6406C94.5625 54.6406 96.4434 56.2402 96.4434 58.5605C96.4434 60.8633 94.5625 62.4629 92.084 62.4629C89.5879 62.4629 87.6895 60.8633 87.6895 58.5605C87.6895 56.2402 89.5879 54.6406 92.084 54.6406ZM92.084 56.5391C90.8184 56.5215 89.8867 57.2949 89.9043 58.5605C89.8867 59.8086 90.8184 60.5645 92.084 60.5645C93.3145 60.5645 94.2461 59.8086 94.2637 58.5605C94.2461 57.2949 93.3145 56.5215 92.084 56.5391ZM110.154 55.1504V63.8691C111.622 63.8428 112.976 63.7373 114.479 63.4121L114.777 65.293C112.809 65.7148 111.086 65.7852 109.029 65.7852H107.904V55.1504H110.154ZM121.158 53.6211V69.6172H119.049V53.6211H121.158ZM117.73 53.9199V68.9141H115.604V60.4941H112.404V58.6836H115.604V53.9199H117.73ZM126.484 55.2734L126.256 64.1855H124.006L123.777 55.2734H126.484ZM125.148 68.1582C124.322 68.1582 123.654 67.4902 123.672 66.6816C123.654 65.873 124.322 65.2227 125.148 65.2227C125.922 65.2227 126.607 65.873 126.607 66.6816C126.607 67.4902 125.922 68.1582 125.148 68.1582Z" fill="#FF4646"/>
<defs>
<linearGradient id="paint0_linear_2965_1753" x1="168.41" y1="144.943" x2="202.672" y2="85.5988" gradientUnits="userSpaceOnUse">
<stop stop-color="#FF4646"/>
<stop offset="1" stop-color="white"/>
</linearGradient>
</defs>
</svg>
