<svg width="142" height="72" viewBox="0 0 142 72" fill="none" xmlns="http://www.w3.org/2000/svg">
<path d="M71 0.5C109.936 0.5 141.5 14.8269 141.5 32.5C141.5 42.1729 132.044 50.8422 117.1 56.71L124.5 70.5L106.424 60.1709C96.0149 62.922 83.9132 64.5 71 64.5C32.0639 64.5 0.5 50.1731 0.5 32.5C0.5 14.8269 32.0639 0.5 71 0.5Z" fill="white"/>
<path d="M117.1 56.71L116.917 56.2445L116.393 56.4503L116.659 56.9464L117.1 56.71ZM124.5 70.5L124.252 70.9341L125.764 71.7982L124.941 70.2636L124.5 70.5ZM106.424 60.1709L106.672 59.7368L106.494 59.6352L106.296 59.6875L106.424 60.1709ZM71 0.5V1C90.4136 1 107.965 4.57271 120.644 10.3279C133.369 16.1036 141 23.9805 141 32.5H141.5H142C142 23.3464 133.849 15.2232 121.058 9.41729C108.221 3.59073 90.5225 0 71 0V0.5ZM141.5 32.5H141C141 37.1615 138.724 41.6255 134.556 45.6732C130.386 49.7226 124.35 53.3261 116.917 56.2445L117.1 56.71L117.282 57.1754C124.794 54.2261 130.958 50.5611 135.252 46.3906C139.548 42.2185 142 37.5115 142 32.5H141.5ZM117.1 56.71L116.659 56.9464L124.059 70.7364L124.5 70.5L124.941 70.2636L117.54 56.4735L117.1 56.71ZM124.5 70.5L124.748 70.0659L106.672 59.7368L106.424 60.1709L106.176 60.605L124.252 70.9341L124.5 70.5ZM106.424 60.1709L106.296 59.6875C95.9324 62.4267 83.8738 64 71 64V64.5V65C83.9525 65 96.0975 63.4174 106.552 60.6543L106.424 60.1709ZM71 64.5V64C51.5864 64 34.035 60.4273 21.3556 54.6721C8.63089 48.8964 1 41.0195 1 32.5H0.5H0C0 41.6536 8.15107 49.7768 20.9423 55.5827C33.7789 61.4093 51.4775 65 71 65V64.5ZM0.5 32.5H1C1 23.9805 8.63089 16.1036 21.3556 10.3279C34.035 4.57271 51.5864 1 71 1V0.5V0C51.4775 0 33.7789 3.59073 20.9423 9.41729C8.15107 15.2232 0 23.3464 0 32.5H0.5Z" fill="black"/>
<path d="M63.4727 23.5234V27.957H65.875V30.0273H63.4727V35.2617H60.9727V23.5234H63.4727ZM59 34.8711C59 36.8438 60.875 38.7773 64.6641 39.2656L63.6875 41.2188C60.9043 40.7891 58.873 39.5879 57.7891 37.918C56.7051 39.5879 54.6738 40.7891 51.8711 41.2188L50.9141 39.2656C54.6641 38.7773 56.5391 36.8438 56.5391 34.8711V34.4219H59V34.8711ZM54.3711 24.6562C57.125 24.6562 59.2148 26.4336 59.2148 29.0117C59.2148 31.5703 57.125 33.3477 54.3711 33.3477C51.5977 33.3477 49.4883 31.5703 49.4883 29.0117C49.4883 26.4336 51.5977 24.6562 54.3711 24.6562ZM54.3711 26.7656C52.9648 26.7461 51.9297 27.6055 51.9492 29.0117C51.9297 30.3984 52.9648 31.2383 54.3711 31.2383C55.7383 31.2383 56.7734 30.3984 56.793 29.0117C56.7734 27.6055 55.7383 26.7461 54.3711 26.7656ZM74.4492 25.2227V34.9102C76.0801 34.8809 77.584 34.7637 79.2539 34.4023L79.5859 36.4922C77.3984 36.9609 75.4844 37.0391 73.1992 37.0391H71.9492V25.2227H74.4492ZM86.6758 23.5234V41.2969H84.332V23.5234H86.6758ZM82.8672 23.8555V40.5156H80.5039V31.1602H76.9492V29.1484H80.5039V23.8555H82.8672ZM92.5938 25.3594L92.3398 35.2617H89.8398L89.5859 25.3594H92.5938ZM91.1094 39.6758C90.1914 39.6758 89.4492 38.9336 89.4688 38.0352C89.4492 37.1367 90.1914 36.4141 91.1094 36.4141C91.9688 36.4141 92.7305 37.1367 92.7305 38.0352C92.7305 38.9336 91.9688 39.6758 91.1094 39.6758Z" fill="#FF4646"/>
</svg>
