<svg width="16" height="17" viewBox="0 0 16 17" fill="none" xmlns="http://www.w3.org/2000/svg">
<path d="M2.66663 4.61765H13.3333M6.66663 11.6765V7.44118M9.33329 11.6765V7.44118M10.6666 14.5H5.33329C4.59691 14.5 3.99996 13.8679 3.99996 13.0882V5.32353C3.99996 4.93368 4.29844 4.61765 4.66663 4.61765H11.3333C11.7015 4.61765 12 4.93368 12 5.32353V13.0882C12 13.8679 11.403 14.5 10.6666 14.5ZM6.66663 4.61765H9.33329C9.70148 4.61765 9.99996 4.30161 9.99996 3.91176V3.20588C9.99996 2.81603 9.70148 2.5 9.33329 2.5H6.66663C6.29844 2.5 5.99996 2.81603 5.99996 3.20588V3.91176C5.99996 4.30161 6.29844 4.61765 6.66663 4.61765Z" stroke="#FF4646" stroke-linecap="round" stroke-linejoin="round"/>
</svg>
